<svg version="1.0" xmlns="http://www.w3.org/2000/svg"
 width="512.00pt" height="512.00pt" viewBox="0 0 512.000000 512.000000"
 preserveAspectRatio="xMidYMid meet">
<metadata>
Created by potrace 1.15, written by Peter Selinger 2001-2017
</metadata>
<g transform="translate(0.000000,512.000000) scale(0.100000,-0.100000)"
fill="#0065f8" stroke="none">
<path d="M0 2560 l0 -2560 2560 0 2560 0 0 662 0 662 -92 -90 c-142 -138 -267
-227 -462 -328 -293 -153 -618 -248 -1031 -303 -186 -24 -647 -24 -840 1 -438
56 -825 177 -1120 351 -93 54 -101 57 -129 46 -141 -55 -258 -84 -409 -102
-105 -12 -226 -4 -233 16 -3 7 18 42 46 77 99 122 156 281 147 411 -4 60 -10
76 -56 150 -76 120 -194 365 -239 498 -76 219 -128 469 -152 720 -18 188 -8
585 20 764 105 683 382 1199 819 1523 l84 62 -736 0 -737 0 0 -2560z"/>
<path d="M3390 2842 c0 -525 2 -600 16 -620 14 -20 23 -22 105 -22 l89 0 0
620 0 620 -105 0 -105 0 0 -598z"/>
<path d="M1210 3325 l0 -105 340 0 c187 0 340 -3 340 -6 0 -4 -155 -200 -345
-437 -350 -436 -365 -458 -365 -539 l0 -38 484 0 c438 0 486 2 501 17 25 24
35 58 35 119 l0 54 -360 0 c-198 0 -360 2 -360 5 0 3 60 81 133 173 456 574
544 686 559 715 9 17 18 57 20 87 l3 55 -492 3 -493 2 0 -105z"/>
<path d="M4113 3145 c-154 -42 -281 -153 -333 -291 -121 -325 106 -664 446
-664 369 0 597 379 428 711 -95 188 -339 298 -541 244z m248 -217 c209 -109
206 -407 -5 -516 -67 -34 -177 -36 -246 -5 -109 50 -176 163 -167 283 11 159
129 270 289 270 55 0 76 -5 129 -32z"/>
<path d="M2595 3131 c-88 -32 -138 -62 -195 -120 -264 -268 -135 -719 231
-806 116 -27 215 -14 330 45 l57 29 12 -30 c7 -16 21 -34 31 -39 27 -15 149
-13 149 3 0 6 0 122 1 257 1 135 1 338 0 453 l-1 207 -95 0 -95 0 0 -36 0 -35
-27 18 c-103 70 -286 95 -398 54z m262 -200 c62 -31 105 -73 133 -128 21 -40
25 -62 25 -133 0 -98 -18 -142 -81 -203 -55 -54 -98 -71 -187 -75 -68 -4 -84
-1 -132 22 -179 88 -218 323 -77 464 80 80 221 104 319 53z"/>
</g>
</svg>
